<?xml version="1.0" encoding="UTF-8" standalone="no"?>
<!DOCTYPE svg PUBLIC "-//W3C//DTD SVG 1.1//EN" "http://www.w3.org/Graphics/SVG/1.1/DTD/svg11.dtd">
<svg width="100%" height="100%" viewBox="0 0 24 24" version="1.1" xmlns="http://www.w3.org/2000/svg" xmlns:xlink="http://www.w3.org/1999/xlink" xml:space="preserve" xmlns:serif="http://www.serif.com/" style="fill-rule:evenodd;clip-rule:evenodd;stroke-linejoin:round;stroke-miterlimit:2;">
    <path d="M10.125,23.811C4.388,22.95 0,17.983 0,12C0,5.377 5.377,0 12,0C18.623,0 24,5.377 24,12C24,17.983 19.612,22.95 13.875,23.811L13.875,16.031L16.671,16.031L17.203,12.563L13.875,12.563L13.875,10.313C13.875,9.363 14.339,8.438 15.83,8.438L17.344,8.438L17.344,5.484C17.344,5.484 15.97,5.25 14.658,5.25C11.916,5.25 10.125,6.912 10.125,9.919L10.125,12.563L7.078,12.563L7.078,16.031L10.125,16.031L10.125,23.811Z" style="fill:rgb(248,23,92);"/>
</svg>
