<?xml version="1.0" encoding="UTF-8" standalone="no"?>
<!DOCTYPE svg PUBLIC "-//W3C//DTD SVG 1.1//EN" "http://www.w3.org/Graphics/SVG/1.1/DTD/svg11.dtd">
<svg width="100%" height="100%" viewBox="0 0 24 24" version="1.1" xmlns="http://www.w3.org/2000/svg" xmlns:xlink="http://www.w3.org/1999/xlink" xml:space="preserve" xmlns:serif="http://www.serif.com/" style="fill-rule:evenodd;clip-rule:evenodd;stroke-linejoin:round;stroke-miterlimit:2;">
    <path d="M12.001,0C5.371,-0.003 0,5.365 0,11.991C0,17.23 3.36,21.683 8.038,23.319C8.669,23.477 8.572,23.029 8.572,22.724L8.572,20.646C4.934,21.072 4.786,18.664 4.542,18.262C4.049,17.42 2.882,17.206 3.231,16.804C4.059,16.377 4.904,16.911 5.883,18.356C6.591,19.404 7.971,19.227 8.671,19.053C8.824,18.423 9.151,17.86 9.602,17.423C5.832,16.747 4.261,14.447 4.261,11.712C4.261,10.384 4.698,9.165 5.556,8.181C5.009,6.558 5.607,5.169 5.687,4.963C7.245,4.824 8.864,6.078 8.99,6.178C9.875,5.939 10.886,5.813 12.017,5.813C13.154,5.813 14.168,5.944 15.061,6.186C15.364,5.955 16.865,4.877 18.313,5.009C18.391,5.215 18.975,6.572 18.461,8.172C19.329,9.159 19.772,10.39 19.772,11.72C19.772,14.46 18.19,16.763 14.409,17.428C14.733,17.747 14.99,18.127 15.165,18.545C15.341,18.964 15.431,19.414 15.431,19.868L15.431,22.885C15.452,23.126 15.431,23.365 15.833,23.365C20.581,21.764 24,17.278 24,11.993C24,5.365 18.627,0 12.001,0Z" style="fill:rgb(248,23,92);fill-rule:nonzero;"/>
</svg>
