<?xml version="1.0" encoding="UTF-8" standalone="no"?>
<!DOCTYPE svg PUBLIC "-//W3C//DTD SVG 1.1//EN" "http://www.w3.org/Graphics/SVG/1.1/DTD/svg11.dtd">
<svg width="100%" height="100%" viewBox="0 0 24 24" version="1.1" xmlns="http://www.w3.org/2000/svg" xmlns:xlink="http://www.w3.org/1999/xlink" xml:space="preserve" xmlns:serif="http://www.serif.com/" style="fill-rule:evenodd;clip-rule:evenodd;stroke-linejoin:round;stroke-miterlimit:2;">
    <path d="M11.997,7.998C9.794,7.998 7.995,9.797 7.995,12C7.995,14.204 9.794,16.002 11.997,16.002C14.201,16.002 15.999,14.204 15.999,12C15.999,9.797 14.201,7.998 11.997,7.998ZM23.999,12C23.999,10.343 24.014,8.701 23.921,7.047C23.828,5.125 23.39,3.42 21.985,2.015C20.577,0.607 18.875,0.172 16.953,0.079C15.296,-0.014 13.654,0.001 12,0.001C10.343,0.001 8.701,-0.014 7.047,0.079C5.125,0.172 3.42,0.61 2.015,2.015C0.607,3.423 0.172,5.125 0.079,7.047C-0.014,8.704 0.001,10.346 0.001,12C0.001,13.654 -0.014,15.299 0.079,16.953C0.172,18.875 0.61,20.58 2.015,21.985C3.423,23.393 5.125,23.828 7.047,23.921C8.704,24.014 10.346,23.999 12,23.999C13.657,23.999 15.299,24.014 16.953,23.921C18.875,23.828 20.58,23.39 21.985,21.985C23.393,20.577 23.828,18.875 23.921,16.953C24.017,15.299 23.999,13.657 23.999,12ZM11.997,18.157C8.59,18.157 5.84,15.407 5.84,12C5.84,8.593 8.59,5.843 11.997,5.843C15.404,5.843 18.154,8.593 18.154,12C18.154,15.407 15.404,18.157 11.997,18.157ZM18.406,7.029C17.611,7.029 16.968,6.386 16.968,5.591C16.968,4.795 17.611,4.153 18.406,4.153C19.202,4.153 19.844,4.795 19.844,5.591C19.845,5.78 19.808,5.967 19.735,6.141C19.663,6.316 19.557,6.474 19.424,6.608C19.29,6.742 19.132,6.847 18.957,6.92C18.782,6.992 18.595,7.029 18.406,7.029Z" style="fill:rgb(248,23,92);fill-rule:nonzero;"/>
</svg>
