<?xml version="1.0" encoding="UTF-8" standalone="no"?>
<!DOCTYPE svg PUBLIC "-//W3C//DTD SVG 1.1//EN" "http://www.w3.org/Graphics/SVG/1.1/DTD/svg11.dtd">
<svg width="100%" height="100%" viewBox="0 0 84 255" version="1.1" xmlns="http://www.w3.org/2000/svg" xmlns:xlink="http://www.w3.org/1999/xlink" xml:space="preserve" xmlns:serif="http://www.serif.com/" style="fill-rule:evenodd;clip-rule:evenodd;stroke-linejoin:round;stroke-miterlimit:2;">
    <path d="M74.88,240.48C77.376,240.48 79.392,241.152 80.928,242.496C82.464,243.84 83.232,245.664 83.232,247.968C83.232,250.08 82.464,251.712 80.928,252.864C79.584,254.208 77.568,254.88 74.88,254.88L55.872,254.88C47.232,254.88 40.704,252.576 36.288,247.968C31.872,243.36 29.664,236.736 29.664,228.096L29.664,158.112C29.664,150.24 28.032,144.48 24.768,140.832C21.696,137.184 16.224,135.168 8.352,134.784C2.784,134.208 0,131.712 0,127.296C0,125.376 0.672,123.744 2.016,122.4C3.552,121.056 5.664,120.288 8.352,120.096C16.224,119.52 21.696,117.408 24.768,113.76C28.032,110.112 29.664,104.352 29.664,96.48L29.664,26.784C29.664,18.144 31.872,11.52 36.288,6.912C40.704,2.304 47.232,0 55.872,0L74.88,0C77.568,0 79.584,0.672 80.928,2.016C82.464,3.168 83.232,4.8 83.232,6.912C83.232,9.216 82.464,11.04 80.928,12.384C79.392,13.728 77.376,14.4 74.88,14.4L59.616,14.4C51.168,14.4 46.944,18.816 46.944,27.648L46.944,98.208C46.944,106.464 44.928,113.088 40.896,118.08C37.056,122.88 32.256,125.952 26.496,127.296C32.256,128.64 37.056,131.808 40.896,136.8C44.928,141.6 46.944,148.128 46.944,156.384L46.944,227.232C46.944,236.064 51.168,240.48 59.616,240.48L74.88,240.48Z" style="fill:rgb(245,209,220);fill-rule:nonzero;"/>
</svg>
