<?xml version="1.0" encoding="UTF-8" standalone="no"?>
<!DOCTYPE svg PUBLIC "-//W3C//DTD SVG 1.1//EN" "http://www.w3.org/Graphics/SVG/1.1/DTD/svg11.dtd">
<svg width="100%" height="100%" viewBox="0 0 512 512" version="1.1" xmlns="http://www.w3.org/2000/svg" xmlns:xlink="http://www.w3.org/1999/xlink" xml:space="preserve" xmlns:serif="http://www.serif.com/" style="fill-rule:evenodd;clip-rule:evenodd;stroke-linejoin:round;stroke-miterlimit:2;">
    <path d="M256,0C114.637,0 0,114.637 0,256C0,397.363 114.637,512 256,512C397.363,512 512,397.363 512,256C512,114.637 397.363,0 256,0ZM372.887,199.602C373,202.121 373.055,204.652 373.055,207.195C373.055,284.84 313.953,374.375 205.871,374.379L205.875,374.379L205.871,374.379C172.688,374.379 141.809,364.652 115.805,347.984C120.402,348.527 125.082,348.797 129.82,348.797C157.352,348.797 182.688,339.406 202.801,323.645C177.078,323.168 155.391,306.18 147.906,282.832C151.488,283.52 155.172,283.895 158.949,283.895C164.313,283.895 169.508,283.172 174.445,281.824C147.559,276.441 127.305,252.68 127.305,224.227C127.305,223.961 127.305,223.723 127.313,223.477C135.23,227.879 144.285,230.527 153.926,230.824C138.148,220.297 127.777,202.301 127.777,181.914C127.777,171.148 130.688,161.063 135.734,152.379C164.711,187.934 208.016,211.316 256.852,213.773C255.844,209.469 255.324,204.984 255.324,200.375C255.324,167.938 281.641,141.621 314.09,141.621C330.992,141.621 346.258,148.766 356.98,160.188C370.367,157.547 382.938,152.656 394.293,145.926C389.898,159.641 380.586,171.148 368.453,178.426C380.34,177.004 391.668,173.852 402.195,169.172C394.332,180.957 384.359,191.309 372.887,199.602Z" style="fill:rgb(248,23,92);fill-rule:nonzero;"/>
</svg>
